<svg width="77" height="59" viewBox="0 0 77 59" fill="none" xmlns="http://www.w3.org/2000/svg">
<g filter="url(#filter0_d_106_18)">
<path d="M71.1489 23.7521C68.0997 9.98034 63.511 2.62985 56.704 0.622041C55.2732 0.202739 53.789 -0.0067389 52.2978 0.000165245C50.3269 0.000165245 48.6104 0.479857 46.7948 0.988272C44.6068 1.60153 42.1212 2.29809 38.497 2.29809C34.8729 2.29809 32.3859 1.60297 30.1936 0.989709C28.3765 0.479857 26.6614 0.000165245 24.6962 0.000165245C23.1543 -0.00517612 21.6192 0.203635 20.1348 0.620605C13.3638 2.6198 8.77789 9.96741 5.68421 23.7435C2.35765 38.568 3.99505 47.9277 10.2759 50.0992C11.1368 50.4024 12.0427 50.5587 12.9555 50.5617C17.2582 50.5617 20.7084 46.9812 23.066 44.0499C25.7299 40.7323 28.848 39.0491 38.497 39.0491C47.1153 39.0491 50.682 40.2167 53.7627 44.0499C55.6992 46.4599 57.5292 48.146 59.3549 49.2073C61.783 50.6177 64.2096 50.9308 66.5658 50.1222C70.2777 48.8569 72.4053 45.512 72.8912 40.1779C73.2607 36.0876 72.6914 30.7148 71.1489 23.7521ZM31.5966 22.9794H26.9964V27.5753C26.9964 28.1847 26.754 28.7692 26.3227 29.2001C25.8913 29.6311 25.3063 29.8732 24.6962 29.8732C24.0862 29.8732 23.5012 29.6311 23.0698 29.2001C22.6384 28.7692 22.3961 28.1847 22.3961 27.5753V22.9794H17.7958C17.1858 22.9794 16.6008 22.7373 16.1694 22.3064C15.7381 21.8754 15.4957 21.2909 15.4957 20.6815C15.4957 20.072 15.7381 19.4876 16.1694 19.0566C16.6008 18.6257 17.1858 18.3836 17.7958 18.3836H22.3961V13.7877C22.3961 13.1783 22.6384 12.5938 23.0698 12.1628C23.5012 11.7319 24.0862 11.4898 24.6962 11.4898C25.3063 11.4898 25.8913 11.7319 26.3227 12.1628C26.754 12.5938 26.9964 13.1783 26.9964 13.7877V18.3836H31.5966C32.2067 18.3836 32.7917 18.6257 33.2231 19.0566C33.6544 19.4876 33.8968 20.072 33.8968 20.6815C33.8968 21.2909 33.6544 21.8754 33.2231 22.3064C32.7917 22.7373 32.2067 22.9794 31.5966 22.9794ZM43.6723 23.5539C43.1037 23.5539 42.5478 23.3854 42.075 23.0698C41.6022 22.7542 41.2336 22.3056 41.016 21.7807C40.7984 21.2558 40.7415 20.6783 40.8524 20.1211C40.9634 19.5639 41.2372 19.0521 41.6393 18.6504C42.0414 18.2487 42.5537 17.9751 43.1114 17.8643C43.6692 17.7534 44.2472 17.8103 44.7726 18.0277C45.298 18.2451 45.747 18.6133 46.063 19.0857C46.3789 19.558 46.5475 20.1134 46.5475 20.6815C46.5475 21.4433 46.2446 22.1739 45.7054 22.7126C45.1662 23.2513 44.4349 23.5539 43.6723 23.5539ZM49.9977 29.8732C49.4287 29.8732 48.8726 29.7045 48.3996 29.3886C47.9266 29.0726 47.5581 28.6236 47.3407 28.0983C47.1233 27.5731 47.0668 26.9951 47.1783 26.4378C47.2898 25.8804 47.5644 25.3686 47.9672 24.9671C48.37 24.5657 48.883 24.2927 49.4412 24.1827C49.9994 24.0727 50.5777 24.1306 51.103 24.3491C51.6282 24.5676 52.0767 24.9369 52.3918 25.4102C52.7069 25.8835 52.8743 26.4395 52.8729 27.008C52.871 27.7685 52.5672 28.4973 52.0282 29.0344C51.4892 29.5715 50.759 29.8732 49.9977 29.8732ZM49.9977 17.2346C49.429 17.2346 48.8732 17.0661 48.4003 16.7505C47.9275 16.4349 47.559 15.9863 47.3414 15.4614C47.1238 14.9366 47.0668 14.359 47.1778 13.8018C47.2887 13.2446 47.5625 12.7328 47.9646 12.3311C48.3667 11.9294 48.8791 11.6558 49.4368 11.545C49.9945 11.4341 50.5726 11.491 51.098 11.7084C51.6233 11.9258 52.0724 12.294 52.3883 12.7664C52.7042 13.2387 52.8729 13.7941 52.8729 14.3622C52.8729 15.124 52.57 15.8546 52.0308 16.3933C51.4916 16.932 50.7602 17.2346 49.9977 17.2346ZM56.3231 23.5539C55.7544 23.5539 55.1985 23.3854 54.7257 23.0698C54.2529 22.7542 53.8844 22.3056 53.6668 21.7807C53.4491 21.2558 53.3922 20.6783 53.5031 20.1211C53.6141 19.5639 53.8879 19.0521 54.29 18.6504C54.6921 18.2487 55.2044 17.9751 55.7621 17.8643C56.3199 17.7534 56.898 17.8103 57.4233 18.0277C57.9487 18.2451 58.3978 18.6133 58.7137 19.0857C59.0296 19.558 59.1982 20.1134 59.1982 20.6815C59.1982 21.4433 58.8953 22.1739 58.3561 22.7126C57.8169 23.2513 57.0856 23.5539 56.3231 23.5539Z" fill="#CEB7FF"/>
<path d="M52.2978 0.500171L52.3001 0.50016C53.7428 0.49348 55.1788 0.696142 56.5632 1.1018C63.0763 3.02331 67.6137 10.0981 70.6607 23.8602C72.1989 30.8036 72.7558 36.1178 72.3933 40.1326C71.9175 45.3552 69.8602 48.471 66.4045 49.6489L66.4035 49.6493C64.204 50.4041 61.9277 50.1235 59.6062 48.7751C57.852 47.7553 56.0665 46.1188 54.1525 43.7368L54.1525 43.7367C52.5595 41.7547 50.8198 40.4419 48.3621 39.6369C45.9297 38.8402 42.8178 38.5491 38.497 38.5491C33.653 38.5491 30.3927 38.9702 27.9926 39.835C25.5679 40.7087 24.0512 42.0245 22.6764 43.7366C21.5067 45.1909 20.086 46.7802 18.4416 48.0039C16.7985 49.2268 14.9633 50.0616 12.956 50.0617C12.0995 50.0588 11.2497 49.9121 10.4419 49.6276L10.4392 49.6267C7.53579 48.6228 5.63118 45.9456 4.86984 41.5803C4.10744 37.2089 4.51518 31.2367 6.17206 23.853C9.26353 10.0868 13.7971 3.01505 20.2732 1.10107C21.712 0.697223 23.2 0.494985 24.6945 0.500165H24.6962C26.5827 0.500165 28.2341 0.959221 30.0585 1.47112L30.0589 1.47122L30.0609 1.4718C32.2608 2.08717 34.8022 2.79809 38.497 2.79809C42.1903 2.79809 44.7298 2.08631 46.9246 1.47114L46.9296 1.46975C48.7525 0.959299 50.4055 0.500165 52.2978 0.500171ZM27.4964 27.5753V23.4794H31.5966C32.3391 23.4794 33.0513 23.1847 33.5765 22.6601C34.1016 22.1354 34.3968 21.4237 34.3968 20.6815C34.3968 19.9393 34.1016 19.2276 33.5765 18.7029C33.0513 18.1782 32.3391 17.8836 31.5966 17.8836H27.4964V13.7877C27.4964 13.0455 27.2012 12.3338 26.6761 11.8091C26.1509 11.2845 25.4387 10.9898 24.6962 10.9898C23.9538 10.9898 23.2416 11.2845 22.7164 11.8091C22.1912 12.3338 21.8961 13.0455 21.8961 13.7877V17.8836H17.7958C17.0534 17.8836 16.3412 18.1782 15.816 18.7029C15.2908 19.2276 14.9957 19.9393 14.9957 20.6815C14.9957 21.4237 15.2908 22.1354 15.816 22.6601C16.3412 23.1847 17.0534 23.4794 17.7958 23.4794H21.8961V27.5753C21.8961 28.3175 22.1912 29.0292 22.7164 29.5539C23.2416 30.0785 23.9538 30.3732 24.6962 30.3732C25.4387 30.3732 26.1509 30.0785 26.6761 29.5539C27.2012 29.0292 27.4964 28.3175 27.4964 27.5753ZM46.8795 15.6529L47.3414 15.4614L46.8795 15.6529C47.135 16.2692 47.5677 16.7959 48.1227 17.1664C48.6778 17.5369 49.3303 17.7346 49.9977 17.7346C50.8927 17.7346 51.7511 17.3794 52.3841 16.747C53.0172 16.1146 53.3729 15.2568 53.3729 14.3622C53.3729 13.6951 53.1749 13.043 52.8039 12.4884C52.433 11.9338 51.9058 11.5016 51.2892 11.2464C50.6725 10.9912 49.994 10.9245 49.3393 11.0546C48.6847 11.1847 48.0833 11.5058 47.6113 11.9774C47.1392 12.449 46.8177 13.0499 46.6874 13.7042C46.5571 14.3585 46.624 15.0366 46.8795 15.6529ZM53.2049 21.9722L53.6668 21.7807L53.2049 21.9722C53.4604 22.5885 53.8931 23.1152 54.4481 23.4857C55.0031 23.8562 55.6556 24.0539 56.3231 24.0539C57.2181 24.0539 58.0765 23.6987 58.7095 23.0663C59.3425 22.4339 59.6982 21.5761 59.6982 20.6815C59.6982 20.0144 59.5002 19.3623 59.1293 18.8077C58.7584 18.2531 58.2312 17.8209 57.6145 17.5657C56.9979 17.3105 56.3193 17.2438 55.6647 17.3739C55.0101 17.504 54.4087 17.8251 53.9366 18.2967C53.4646 18.7683 53.143 19.3692 53.0128 20.0235C52.8825 20.6777 52.9494 21.3559 53.2049 21.9722ZM41.7974 23.4857C42.3524 23.8562 43.0049 24.0539 43.6723 24.0539C44.5673 24.0539 45.4258 23.6987 46.0588 23.0663C46.6918 22.4339 47.0475 21.5761 47.0475 20.6815C47.0475 20.0144 46.8495 19.3623 46.4786 18.8077C46.1076 18.2531 45.5805 17.8209 44.9638 17.5657C44.3471 17.3105 43.6686 17.2438 43.014 17.3739C42.3593 17.504 41.758 17.8251 41.2859 18.2967C40.8138 18.7683 40.4923 19.3692 40.362 20.0235C40.2318 20.6777 40.2986 21.3559 40.5542 21.9722C40.8097 22.5885 41.2423 23.1152 41.7974 23.4857ZM48.1219 29.8044C48.6771 30.1752 49.3299 30.3732 49.9977 30.3732C50.8912 30.3732 51.7484 30.0192 52.3812 29.3886C53.0139 28.758 53.3706 27.9023 53.3729 27.0092C53.3745 26.3417 53.1779 25.6888 52.808 25.1331C52.4381 24.5774 51.9116 24.1439 51.295 23.8874C50.6785 23.631 49.9997 23.563 49.3445 23.6921C48.6893 23.8213 48.0872 24.1417 47.6143 24.613C47.1414 25.0842 46.819 25.6852 46.688 26.3397C46.5571 26.9942 46.6234 27.6728 46.8787 28.2895C47.134 28.9063 47.5667 29.4335 48.1219 29.8044Z" stroke="black"/>
</g>
<defs>
<filter id="filter0_d_106_18" x="0" y="0" width="77" height="58.5617" filterUnits="userSpaceOnUse" color-interpolation-filters="sRGB">
<feFlood flood-opacity="0" result="BackgroundImageFix"/>
<feColorMatrix in="SourceAlpha" type="matrix" values="0 0 0 0 0 0 0 0 0 0 0 0 0 0 0 0 0 0 127 0" result="hardAlpha"/>
<feOffset dy="4"/>
<feGaussianBlur stdDeviation="2"/>
<feComposite in2="hardAlpha" operator="out"/>
<feColorMatrix type="matrix" values="0 0 0 0 0 0 0 0 0 0 0 0 0 0 0 0 0 0 0.25 0"/>
<feBlend mode="normal" in2="BackgroundImageFix" result="effect1_dropShadow_106_18"/>
<feBlend mode="normal" in="SourceGraphic" in2="effect1_dropShadow_106_18" result="shape"/>
</filter>
</defs>
</svg>
